<mxfile host="app.diagrams.net" modified="2023-06-15T14:28:06.867Z" agent="Mozilla/5.0 (Windows NT 10.0; Win64; x64) AppleWebKit/537.36 (KHTML, like Gecko) Chrome/114.0.0.0 Safari/537.36" etag="srWOCbbaS_aKvFvblKPw" version="21.3.4" type="github">
  <diagram name="Страница 1" id="ZJ0cEDd15Ko4lwNEbQ2h">
    <mxGraphModel dx="776" dy="358" grid="1" gridSize="10" guides="1" tooltips="1" connect="1" arrows="1" fold="1" page="1" pageScale="1" pageWidth="1169" pageHeight="827" math="0" shadow="0">
      <root>
        <mxCell id="0" />
        <mxCell id="1" parent="0" />
        <mxCell id="czJeCRldhIC0j0ZztvAR-1" value="FACT" style="rounded=0;whiteSpace=wrap;html=1;" vertex="1" parent="1">
          <mxGeometry x="70" y="401" width="120" height="60" as="geometry" />
        </mxCell>
        <mxCell id="czJeCRldhIC0j0ZztvAR-2" value="IRFP5&lt;br&gt;(Получение УоФ)" style="rounded=0;whiteSpace=wrap;html=1;" vertex="1" parent="1">
          <mxGeometry x="490" y="401" width="120" height="60" as="geometry" />
        </mxCell>
        <object label="" InformationItem="InformationItem" id="czJeCRldhIC0j0ZztvAR-9">
          <mxCell style="endArrow=block;html=1;rounded=0;strokeColor=default;startArrow=none;startFill=0;endFill=1;labelPosition=center;verticalLabelPosition=bottom;align=center;verticalAlign=top;flowAnimation=0;targetPerimeterSpacing=0;strokeWidth=0;endSize=17;sourcePerimeterSpacing=0;startSize=0;jumpStyle=none;jumpSize=0;" edge="1" parent="1">
            <mxGeometry x="-0.0008" relative="1" as="geometry">
              <mxPoint x="190" y="435" as="sourcePoint" />
              <mxPoint x="336" y="435" as="targetPoint" />
              <mxPoint as="offset" />
            </mxGeometry>
          </mxCell>
        </object>
        <mxCell id="czJeCRldhIC0j0ZztvAR-10" value="FactorContractSMO,РПД,РУДТ,РПП,РОУДТ,УОДФ&lt;br&gt;УоФ-error,РУДТ-error,РПП-error,РОУДТ-error,УИДФ-error,УОДФ-error&amp;nbsp;" style="edgeLabel;html=1;align=center;verticalAlign=middle;resizable=0;points=[];labelPosition=left;verticalLabelPosition=middle;labelBackgroundColor=none;" vertex="1" connectable="0" parent="czJeCRldhIC0j0ZztvAR-9">
          <mxGeometry relative="1" as="geometry">
            <mxPoint x="72" y="24" as="offset" />
          </mxGeometry>
        </mxCell>
        <mxCell id="czJeCRldhIC0j0ZztvAR-11" value="" style="endArrow=none;html=1;rounded=0;entryX=0;entryY=0.25;entryDx=0;entryDy=0;exitX=1;exitY=0.25;exitDx=0;exitDy=0;fontColor=default;verticalAlign=middle;" edge="1" parent="1">
          <mxGeometry width="50" height="50" relative="1" as="geometry">
            <mxPoint x="190" y="435" as="sourcePoint" />
            <mxPoint x="490" y="435" as="targetPoint" />
            <Array as="points" />
          </mxGeometry>
        </mxCell>
        <mxCell id="czJeCRldhIC0j0ZztvAR-12" value="1" style="edgeLabel;html=1;align=center;verticalAlign=bottom;resizable=0;points=[];" vertex="1" connectable="0" parent="czJeCRldhIC0j0ZztvAR-11">
          <mxGeometry x="-0.9289" y="1" relative="1" as="geometry">
            <mxPoint y="24" as="offset" />
          </mxGeometry>
        </mxCell>
        <mxCell id="czJeCRldhIC0j0ZztvAR-13" value="1" style="edgeLabel;html=1;align=center;verticalAlign=bottom;resizable=0;points=[];" vertex="1" connectable="0" parent="czJeCRldhIC0j0ZztvAR-11">
          <mxGeometry x="0.9044" relative="1" as="geometry">
            <mxPoint y="23" as="offset" />
          </mxGeometry>
        </mxCell>
        <mxCell id="czJeCRldhIC0j0ZztvAR-14" value="Адаптер к фактору" style="edgeLabel;html=1;align=center;verticalAlign=middle;resizable=0;points=[];labelBackgroundColor=none;" vertex="1" connectable="0" parent="czJeCRldhIC0j0ZztvAR-11">
          <mxGeometry x="-0.8889" y="1" relative="1" as="geometry">
            <mxPoint x="33" y="-13" as="offset" />
          </mxGeometry>
        </mxCell>
        <mxCell id="czJeCRldhIC0j0ZztvAR-15" value="Диаграмма информационных потоков&lt;br&gt;БП &quot;Факторинг&quot; (С3 level)" style="text;html=1;align=center;verticalAlign=middle;resizable=0;points=[];autosize=1;strokeColor=none;fillColor=none;fontStyle=1" vertex="1" parent="1">
          <mxGeometry x="210" y="270" width="250" height="40" as="geometry" />
        </mxCell>
        <mxCell id="czJeCRldhIC0j0ZztvAR-16" value="&lt;i&gt;UML Information Flow Diagram&amp;nbsp;&lt;br&gt;(since UML v2.5.1 specification December 2017)&lt;/i&gt;" style="text;html=1;align=right;verticalAlign=middle;resizable=0;points=[];autosize=1;strokeColor=none;fillColor=none;" vertex="1" parent="1">
          <mxGeometry x="330" y="563" width="280" height="40" as="geometry" />
        </mxCell>
        <mxCell id="czJeCRldhIC0j0ZztvAR-18" value="Сервис" style="edgeLabel;html=1;align=center;verticalAlign=middle;resizable=0;points=[];labelBorderColor=none;labelBackgroundColor=none;" vertex="1" connectable="0" parent="1">
          <mxGeometry x="460" y="420" as="geometry" />
        </mxCell>
      </root>
    </mxGraphModel>
  </diagram>
</mxfile>
